<svg width="95" height="95" viewBox="0 0 95 95" fill="none" xmlns="http://www.w3.org/2000/svg">
<path d="M11.0347 59.9027C3.15277 70.9374 0 94.5831 0 94.5831C0 94.5831 25.2222 91.4304 34.6805 85.1248C44.1388 78.8193 42.5624 56.7499 42.5624 56.7499L18.9166 75.6665L37.8332 52.0208C37.8332 52.0208 18.9166 48.868 11.0347 59.9027Z" fill="white"/>
<path d="M58.7432 82.0706C69.7779 89.9525 93.4236 93.1053 93.4236 93.1053C93.4236 93.1053 90.2709 67.8831 83.9653 58.4248C77.6598 48.9665 55.5904 50.5429 55.5904 50.5429L74.507 74.1887L50.8612 55.272C50.8612 55.272 47.7084 74.1887 58.7432 82.0706Z" fill="white"/>
<path d="M83.9653 34.6805C91.8472 23.6457 95 0 95 0C95 0 69.7778 3.15277 60.3195 9.45831C50.8612 15.7639 52.4376 37.8332 52.4376 37.8332L76.0834 18.9166L57.1668 42.5624C57.1668 42.5624 76.0834 45.7152 83.9653 34.6805Z" fill="white"/>
<path d="M36.2568 12.5126C25.2221 4.63065 1.57637 1.47789 1.57637 1.47789C1.57637 1.47789 4.72914 26.7001 11.0347 36.1584C17.3402 45.6167 39.4096 44.0403 39.4096 44.0403L20.493 20.3945L44.1388 39.3111C44.1388 39.3111 47.2916 20.3945 36.2568 12.5126Z" fill="white"/>
</svg>
