<svg width="58" height="98" viewBox="0 0 58 98" fill="none" xmlns="http://www.w3.org/2000/svg">
<path d="M17.6493 22.0616C11.8436 9.2891 0 0 0 0C0 0 7.89573 7.43128 9.05687 26.9384C9.58215 35.763 6.96682 49.4645 6.96682 49.4645C6.96682 49.4645 4.87678 63.1659 11.8436 77.0995C18.8104 91.0332 28.7962 98 28.7962 98C28.7962 98 20.2038 86.3886 20.2038 71.7583C20.2038 65.7204 22.7583 42.9621 22.7583 42.9621C22.7583 42.9621 23.455 34.8341 17.6493 22.0616Z" fill="white"/>
<path d="M39.9431 22.0616C45.7488 9.2891 57.5924 0 57.5924 0C57.5924 0 49.6967 7.43128 48.5355 26.9384C48.0103 35.763 50.6256 49.4645 50.6256 49.4645C50.6256 49.4645 52.7156 63.1659 45.7488 77.0995C38.782 91.0332 28.7962 98 28.7962 98C28.7962 98 37.3886 86.3886 37.3886 71.7583C37.3886 65.7204 34.8341 42.9621 34.8341 42.9621C34.8341 42.9621 34.1374 34.8341 39.9431 22.0616Z" fill="white"/>
</svg>
