<svg width="56" height="118" viewBox="0 0 56 118" fill="none" xmlns="http://www.w3.org/2000/svg">
<path d="M37.4127 50.1434C32.4828 46.4345 28.0595 37.4127 28.0595 37.4127C28.0595 37.4127 23.6329 46.4301 18.7063 50.1434C12.6295 54.7237 0 55.5994 0 55.5994C0 55.5994 13.2503 49.1041 16.6279 41.05C20.0054 32.9959 28.0595 0 28.0595 0C28.0595 0 36.1136 32.7361 39.4911 41.05C42.8687 49.3639 55.5994 55.5994 55.5994 55.5994C55.5994 55.5994 43.3381 54.6012 37.4127 50.1434Z" fill="white"/>
<path d="M37.6822 67.4953C32.7169 71.2309 28.2617 80.3178 28.2617 80.3178C28.2617 80.3178 23.8031 71.2354 18.8411 67.4953C12.7205 62.882 0 62 0 62C0 62 13.3458 68.5421 16.7477 76.6542C20.1495 84.7664 28.2617 118 28.2617 118C28.2617 118 36.3738 85.028 39.7757 76.6542C43.1776 68.2804 56 62 56 62C56 62 43.6504 63.0054 37.6822 67.4953Z" fill="white"/>
<path d="M33.2557 63.3937C36.2154 60.5799 42.6089 58.7171 42.6089 58.7171C42.6089 58.7171 36.2147 57.2475 33.2557 54.5601C30.0304 51.6309 28.0595 44.6874 28.0595 44.6874C28.0595 44.6874 26.0886 51.6309 22.8633 54.5601C19.9043 57.2475 13.5101 58.7171 13.5101 58.7171C13.5101 58.7171 19.9036 60.5799 22.8633 63.3937C25.8916 66.2727 28.0595 72.7469 28.0595 72.7469C28.0595 72.7469 30.2274 66.2727 33.2557 63.3937Z" fill="white"/>
</svg>
