<svg width="52" height="146" viewBox="0 0 52 146" fill="none" xmlns="http://www.w3.org/2000/svg">
<path d="M37.1499 114.088C36.8408 131.093 26.6378 145.624 26.6378 145.624C26.6378 145.624 29.4204 136.967 26.6378 124.909C22.0732 105.129 0.753639 97.5728 0.0482478 76.0585C-0.570118 57.1985 4.84449 51.4292 11.1788 38.3384C6.18073 56.6645 10.2512 66.1647 25.0919 83.788C30.0388 89.6624 37.4591 97.0828 37.1499 114.088Z" fill="url(#paint0_linear_9_50)"/>
<path d="M51.9906 75.7493C51.6815 92.7543 41.4785 107.286 41.4785 107.286C41.4785 107.286 44.2611 98.6287 41.4785 86.5706C36.9139 66.7907 15.5943 59.2343 14.8889 37.7201C14.2706 18.86 19.6852 13.0908 26.0195 0C21.0214 18.3261 25.0919 27.8263 39.9326 45.4496C44.8795 51.324 52.2998 58.7444 51.9906 75.7493Z" fill="url(#paint1_linear_9_50)"/>
<defs>
<linearGradient id="paint0_linear_9_50" x1="18.5797" y1="38.3384" x2="18.5797" y2="145.624" gradientUnits="userSpaceOnUse">
<stop stop-color="#EF3939"/>
<stop offset="1" stop-color="white"/>
</linearGradient>
<linearGradient id="paint1_linear_9_50" x1="33.4204" y1="0" x2="33.4204" y2="107.286" gradientUnits="userSpaceOnUse">
<stop stop-color="#EF3939"/>
<stop offset="1" stop-color="white"/>
</linearGradient>
</defs>
</svg>
