<svg width="47" height="125" viewBox="0 0 47 125" fill="none" xmlns="http://www.w3.org/2000/svg">
<path d="M32 112C32 115.5 29.1314 124.5 23 124.5C16.8686 124.5 14 115.5 14 112C14 108.5 23 75 23 75C23 75 32 108.5 32 112Z" fill="url(#paint0_linear_8_7)"/>
<path d="M47 92.5C47 101.5 44.2188 111.528 35 121.5C38.3937 115.103 40.5 110.5 40.5 106C40.5 101.5 23 42.5 23 42.5C23 42.5 7 97.5 7 106C7 114.5 12 121.5 12 121.5C4.61836 112.375 0 105.5 0 92.5C0 79.5 23 0 23 0C23 0 47 83.5 47 92.5Z" fill="url(#paint1_linear_8_7)"/>
<defs>
<linearGradient id="paint0_linear_8_7" x1="23" y1="75" x2="23" y2="124.5" gradientUnits="userSpaceOnUse">
<stop stop-color="#6B84EF"/>
<stop offset="1" stop-color="white"/>
</linearGradient>
<linearGradient id="paint1_linear_8_7" x1="23.5" y1="1.63655e-08" x2="23.5" y2="121.5" gradientUnits="userSpaceOnUse">
<stop stop-color="#6B84EF"/>
<stop offset="1" stop-color="white"/>
</linearGradient>
</defs>
</svg>
