<svg width="57" height="118" viewBox="0 0 57 118" fill="none" xmlns="http://www.w3.org/2000/svg">
<path d="M37.4127 50.1434C32.4828 46.4345 28.0595 37.4127 28.0595 37.4127C28.0595 37.4127 23.6329 46.4301 18.7063 50.1434C12.6295 54.7237 0 55.5994 0 55.5994C0 55.5994 13.2503 49.1041 16.6279 41.05C20.0054 32.9959 28.0595 0 28.0595 0C28.0595 0 36.1136 32.7361 39.4911 41.05C42.8687 49.3639 55.5994 55.5994 55.5994 55.5994C55.5994 55.5994 43.3381 54.6012 37.4127 50.1434Z" fill="url(#paint0_linear_8_22)"/>
<path d="M18.7063 67.8105C23.6362 71.5193 28.0595 80.5412 28.0595 80.5412C28.0595 80.5412 32.4861 71.5237 37.4127 67.8105C43.4895 63.2302 56.119 62.3544 56.119 62.3544C56.119 62.3544 42.8687 68.8497 39.4911 76.9038C36.1136 84.9579 28.0595 117.954 28.0595 117.954C28.0595 117.954 20.0054 85.2177 16.6279 76.9038C13.2503 68.5899 0.519622 62.3544 0.519622 62.3544C0.519622 62.3544 12.7809 63.3526 18.7063 67.8105Z" fill="url(#paint1_linear_8_22)"/>
<path d="M33.2557 63.3937C36.2154 60.5799 42.6089 58.7171 42.6089 58.7171C42.6089 58.7171 36.2147 57.2475 33.2557 54.5601C30.0304 51.6309 28.0595 44.6874 28.0595 44.6874C28.0595 44.6874 26.0886 51.6309 22.8633 54.5601C19.9043 57.2475 13.5101 58.7171 13.5101 58.7171C13.5101 58.7171 19.9036 60.5799 22.8633 63.3937C25.8916 66.2727 28.0595 72.7469 28.0595 72.7469C28.0595 72.7469 30.2274 66.2727 33.2557 63.3937Z" fill="url(#paint2_linear_8_22)"/>
<defs>
<linearGradient id="paint0_linear_8_22" x1="27.7997" y1="0" x2="27.7997" y2="55.5994" gradientUnits="userSpaceOnUse">
<stop stop-color="#FBBA4A"/>
<stop offset="1" stop-color="#EDC677"/>
</linearGradient>
<linearGradient id="paint1_linear_8_22" x1="28.3193" y1="117.954" x2="28.3193" y2="62.3544" gradientUnits="userSpaceOnUse">
<stop stop-color="white"/>
<stop offset="1" stop-color="#FFDE9C"/>
</linearGradient>
<linearGradient id="paint2_linear_8_22" x1="28.0595" y1="44.6874" x2="28.0595" y2="72.7469" gradientUnits="userSpaceOnUse">
<stop stop-color="#FFCE7B"/>
<stop offset="1" stop-color="#FFD694"/>
</linearGradient>
</defs>
</svg>
