<svg width="57" height="130" viewBox="0 0 57 130" fill="none" xmlns="http://www.w3.org/2000/svg">
<path d="M26.415 68.1939L25.8759 129.38C25.8759 129.38 29.1104 119.137 32.3449 111.051C35.5794 102.965 43.1266 94.6089 43.1266 94.6089C43.1266 94.6089 56.0646 81.1319 56.0646 65.229C56.6036 45.822 36.6576 30.1886 36.6576 30.1886V39.6225C36.6576 39.6225 45.2829 50.1347 45.2829 62.264C45.2829 74.3934 33.1536 87.8704 33.1536 87.8704C33.1536 87.8704 30.3889 82.5707 29.1104 78.9756C27.6563 74.8863 26.415 68.1939 26.415 68.1939Z" fill="white"/>
<path d="M29.6603 61.1858L30.1993 7.62939e-06C30.1993 7.62939e-06 26.9648 10.2426 23.7303 18.3288C20.4959 26.415 12.9487 34.7708 12.9487 34.7708C12.9487 34.7708 0.0107282 48.2479 0.0107296 64.1508C-0.52835 83.5578 19.4177 99.1911 19.4177 99.1911L19.4177 89.7572C19.4177 89.7572 10.7924 79.2451 10.7924 67.1158C10.7924 54.9864 22.9217 41.5093 22.9217 41.5093C22.9217 41.5093 25.6864 46.8091 26.9648 50.4042C28.419 54.4934 29.6603 61.1858 29.6603 61.1858Z" fill="white"/>
</svg>
